<?xml version="1.0" encoding="UTF-8" standalone="no"?>
<!-- Created with Inkscape (http://www.inkscape.org/) -->

<svg
   width="32"
   height="32"
   viewBox="0 0 32 32"
   version="1.1"
   id="svg1"
   sodipodi:docname="german_flag2.svg"
   inkscape:version="1.4.3 (0d15f75, 2025-12-25)"
   xmlns:inkscape="http://www.inkscape.org/namespaces/inkscape"
   xmlns:sodipodi="http://sodipodi.sourceforge.net/DTD/sodipodi-0.dtd"
   xmlns="http://www.w3.org/2000/svg"
   xmlns:svg="http://www.w3.org/2000/svg"
   xmlns:rdf="http://www.w3.org/1999/02/22-rdf-syntax-ns#"
   xmlns:cc="http://creativecommons.org/ns#"
   xmlns:dc="http://purl.org/dc/elements/1.1/">
  <style
     id="style1"
     type="text/css">.squiggle {animation:shift .5s linear infinite;}@keyframes shift {from {transform:translateX(0);}to {transform:translateX(32px);}}</style>
  <defs
     id="defs1" />
  <sodipodi:namedview
     id="base"
     pagecolor="#ffffff"
     bordercolor="#000000"
     borderopacity="0.3"
     inkscape:pageopacity="0.0"
     inkscape:pageshadow="2"
     inkscape:zoom="7.9195959"
     inkscape:cx="0"
     inkscape:cy="8.0180859"
     inkscape:document-units="mm"
     inkscape:showpageshadow="2"
     inkscape:pagecheckerboard="0"
     inkscape:deskcolor="#d1d1d1"
     inkscape:window-width="1920"
     inkscape:window-height="1051"
     inkscape:window-x="-9"
     inkscape:window-y="-9"
     inkscape:window-maximized="1"
     inkscape:current-layer="svg1" />
  <metadata
     id="metadata1">
    <rdf:RDF>
      <cc:Work
         rdf:about="">
        <dc:format>image/svg+xml</dc:format>
        <dc:type
           rdf:resource="http://purl.org/dc/dcmitype/StillImage" />
      </cc:Work>
    </rdf:RDF>
  </metadata>
  <g
     id="g1"
     transform="matrix(1,0,0,0.85086851,-4e-6,-1.0989155)">
    <path
       id="rect1"
       style="fill:#ffcc00;stroke-width:3.50294;stroke-linecap:round;paint-order:fill markers stroke;fill-opacity:1"
       d="m 7.9501746,20.076901 c 6.4844284,0 9.8402924,9.392689 16.0205954,9.392689 6.180302,0 8.029234,-4.696345 8.029234,-4.696345 v 9.430563 c 0,0 -1.938155,4.696345 -8.029234,4.696345 -6.09108,0 -9.564743,-9.430563 -16.0205954,-9.430563 -6.4558529,0 -8.0292344,4.734218 -8.0292344,4.734218 0,0 -1.9381549,4.696345 -8.0292344,4.696345 -6.0910798,0 -9.5647418,-9.430563 -16.0205948,-9.430563 -6.455857,0 -8.029235,4.734218 -8.029235,4.734218 v -9.430563 c 0,0 1.544806,-4.696344 8.029235,-4.696344 6.484428,0 9.840289,9.392689 16.0205948,9.392689 6.1803024,0 8.0292344,-4.696345 8.0292344,-4.696345 0,0 1.5448058,-4.696344 8.0292344,-4.696344 z"
       sodipodi:nodetypes="zzcczzczzcczzcz"
       class="squiggle" />
    <path
       id="rect1-3"
       style="fill:#000000;fill-opacity:1;stroke-width:3.50294;stroke-linecap:round;paint-order:fill markers stroke"
       d="m 7.9501746,1.2915221 c 6.4844284,0 9.8402924,9.3926889 16.0205954,9.3926889 6.180302,0 8.029234,-4.6963442 8.029234,-4.6963442 V 15.41843 c 0,0 -1.938155,4.696344 -8.029234,4.696344 -6.09108,0 -9.564743,-9.430563 -16.0205954,-9.430563 -6.4558529,0 -8.0292344,4.734219 -8.0292344,4.734219 0,0 -1.9381549,4.696344 -8.0292344,4.696344 -6.0910798,0 -9.5647418,-9.430563 -16.0205948,-9.430563 -6.455857,0 -8.029235,4.734219 -8.029235,4.734219 V 5.9878668 c 0,0 1.544806,-4.6963447 8.029235,-4.6963447 6.484428,0 9.840289,9.3926889 16.0205948,9.3926889 6.1803024,0 8.0292344,-4.6963442 8.0292344,-4.6963442 0,0 1.5448058,-4.6963447 8.0292344,-4.6963447 z"
       sodipodi:nodetypes="zzcczzczzcczzcz"
       class="squiggle" />
    <path
       id="rect1-34"
       style="fill:#ff0000;fill-opacity:1;stroke-width:3.50294;stroke-linecap:round;paint-order:fill markers stroke"
       d="m 7.9501746,10.684211 c 6.4844284,0 9.8402924,9.39269 16.0205954,9.39269 6.180302,0 8.029234,-4.696345 8.029234,-4.696345 v 9.430563 c 0,0 -1.938155,4.696345 -8.029234,4.696345 -6.09108,0 -9.564743,-9.430563 -16.0205954,-9.430563 -6.4558529,0 -8.0292344,4.734218 -8.0292344,4.734218 0,0 -1.9381549,4.696345 -8.0292344,4.696345 -6.0910798,0 -9.5647418,-9.430563 -16.0205948,-9.430563 -6.455853,0 -8.029235,4.734218 -8.029235,4.734218 v -9.430563 c 0,0 1.544806,-4.696345 8.029235,-4.696345 6.484428,0 9.840292,9.39269 16.0205948,9.39269 6.1803024,0 8.0292344,-4.696345 8.0292344,-4.696345 0,0 1.5448058,-4.696345 8.0292344,-4.696345 z"
       sodipodi:nodetypes="zzcczzczzcczzcz"
       class="squiggle" />
  </g>
</svg>
