<?xml version="1.0" encoding="UTF-8" standalone="no"?>
<!-- Created with Inkscape (http://www.inkscape.org/) -->

<svg
   width="32"
   height="32"
   viewBox="32 0 32 32"
   version="1.1"
   id="svg1"
   inkscape:version="1.4.3 (0d15f75, 2025-12-25)"
   sodipodi:docname="german_flag.svg"
   xmlns:inkscape="http://www.inkscape.org/namespaces/inkscape"
   xmlns:sodipodi="http://sodipodi.sourceforge.net/DTD/sodipodi-0.dtd"
   xmlns:xlink="http://www.w3.org/1999/xlink"
   xmlns="http://www.w3.org/2000/svg"
   xmlns:svg="http://www.w3.org/2000/svg">
  <sodipodi:namedview
     id="namedview1"
     pagecolor="#ffffff"
     bordercolor="#000000"
     borderopacity="0.25"
     inkscape:showpageshadow="2"
     inkscape:pageopacity="0.0"
     inkscape:pagecheckerboard="0"
     inkscape:deskcolor="#d1d1d1"
     inkscape:document-units="px"
     inkscape:zoom="4"
     inkscape:cx="2.75"
     inkscape:cy="38.625"
     inkscape:window-width="1920"
     inkscape:window-height="1051"
     inkscape:window-x="-9"
     inkscape:window-y="-9"
     inkscape:window-maximized="1"
     inkscape:current-layer="layer1" />
  <style
     type="text/css"
     id="style1">.squiggle {animation:shift .5s linear infinite;}@keyframes shift {from {transform:translateX(0);}to {transform:translateX(32px);}}</style>
  <defs
     id="defs1">
    <linearGradient
       id="linearGradient1"
       inkscape:collect="always">
      <stop
         style="stop-color:#000000;stop-opacity:1;"
         offset="0.34"
         id="stop3" />
      <stop
         style="stop-color:#ff0000;stop-opacity:1;"
         offset="0.34"
         id="stop1" />
      <stop
         style="stop-color:#ff0000;stop-opacity:1;"
         offset="0.66000003"
         id="stop4" />
      <stop
         style="stop-color:#ffcc00;stop-opacity:1;"
         offset="0.66000003"
         id="stop2" />
    </linearGradient>
    <linearGradient
       inkscape:collect="always"
       xlink:href="#linearGradient1"
       id="linearGradient3"
       x1="16"
       y1="0.5"
       x2="16"
       y2="31"
       gradientUnits="userSpaceOnUse" />
  </defs>
  <g
     inkscape:label="Layer 1"
     inkscape:groupmode="layer"
     id="layer1">
    <path
       id="rect1"
       style="fill:url(#linearGradient3);stroke-width:13.212;stroke-linecap:round;paint-order:fill markers stroke"
       d="m 24,30 c -2.5,0 -5.25,0.5 -8,1 -2.75,0.5 -5.5,1 -8,1 C 3,32 0,31 0,31 V 1 C 0,1 3,2 8,2 10.5,2 13.25,1 16,0.5 18.75,0 21.5,0 24,0 c 5,0 8,1 8,1 0,0 3,1 8,1 2.5,0 5.25,-1 8,-1.5 C 50.75,0 53.5,0 56,0 c 5,0 8,1 8,1 v 30 c 0,0 -3,-1 -8,-1 -2.5,0 -5.25,0.5 -8,1 -2.75,0.5 -5.5,1 -8,1 -5,0 -8,-1 -8,-1 0,0 -3,-1 -8,-1 z"
       sodipodi:nodetypes="szsccszscszsccszscs"
       class="squiggle" />
  </g>
</svg>
