<?xml version="1.0" encoding="UTF-8" standalone="no"?>
<svg
   xmlns:dc="http://purl.org/dc/elements/1.1/"
   xmlns:cc="http://creativecommons.org/ns#"
   xmlns:rdf="http://www.w3.org/1999/02/22-rdf-syntax-ns#"
   xmlns:svg="http://www.w3.org/2000/svg"
   xmlns="http://www.w3.org/2000/svg"
   xmlns:sodipodi="http://sodipodi.sourceforge.net/DTD/sodipodi-0.dtd"
   xmlns:inkscape="http://www.inkscape.org/namespaces/inkscape"
   width="41.228909mm"
   height="279.54599mm"
   viewBox="0 0 41.228909 279.54599"
   version="1.1"
   id="svg224"
   inkscape:version="1.0.2 (e86c870879, 2021-01-15, custom)"
   sodipodi:docname="Art Nouveau pendantif 1.svg">
  <defs
     id="defs218" />
  <sodipodi:namedview
     id="base"
     pagecolor="#ffffff"
     bordercolor="#666666"
     borderopacity="1.0"
     inkscape:pageopacity="0.0"
     inkscape:pageshadow="2"
     inkscape:zoom="0.49497475"
     inkscape:cx="-303.69424"
     inkscape:cy="302.09931"
     inkscape:document-units="mm"
     inkscape:current-layer="layer1"
     inkscape:document-rotation="0"
     showgrid="false"
     inkscape:window-width="1920"
     inkscape:window-height="1057"
     inkscape:window-x="-8"
     inkscape:window-y="-8"
     inkscape:window-maximized="1" />
  <metadata
     id="metadata221">
    <rdf:RDF>
      <cc:Work
         rdf:about="">
        <dc:format>image/svg+xml</dc:format>
        <dc:type
           rdf:resource="http://purl.org/dc/dcmitype/StillImage" />
        <dc:title></dc:title>
      </cc:Work>
    </rdf:RDF>
  </metadata>
  <g
     inkscape:label="Layer 1"
     inkscape:groupmode="layer"
     id="layer1"
     transform="translate(-113.09288,3.4607275)">
    <path
       style="fill:#000000;stroke-width:0.264583"
       d="m 133.54883,275.61202 c -1.07567,-0.65587 -1.40595,-1.28815 -1.40595,-2.69139 0,-1.33287 0.82111,-2.69251 1.96108,-3.24731 1.75786,-0.85553 2.09506,0.66379 0.40696,1.83364 -0.85058,0.58944 -1.05519,0.88334 -0.99219,1.42505 0.0651,0.55978 0.2373,0.69762 0.95798,0.76676 0.49108,0.0471 1.16062,-0.10046 1.51795,-0.33459 0.76918,-0.50398 1.70447,-2.24825 1.70447,-3.17876 0,-0.56105 0.12342,-0.67199 0.74763,-0.67199 0.89738,0 1.89821,0.96904 1.89821,1.8379 0,1.46706 -1.91676,3.39162 -4.26741,4.2848 -1.58534,0.6024 -1.49991,0.6032 -2.52873,-0.0241 z m 3.74215,-7.9144 c -1.85416,-1.13072 -3.03143,-3.18984 -3.03143,-5.30222 0,-2.46163 0.85814,-3.46501 2.02551,-2.36834 0.76607,0.71969 0.78232,1.21005 0.0654,1.97318 -0.73567,0.78309 -0.48833,1.93752 0.58515,2.73119 1.01757,0.75232 1.48006,0.56798 1.71484,-0.68352 0.16545,-0.88197 0.0353,-1.66614 -0.5968,-3.59646 -0.23813,-0.72715 0.78051,-0.57877 1.59105,0.23178 1.01817,1.01817 1.49426,2.13889 1.49234,3.51303 -0.001,1.03465 -0.16923,1.4233 -1.12448,2.60456 -0.61753,0.76364 -1.30138,1.38827 -1.51966,1.38808 -0.21828,-2.1e-4 -0.75913,-0.22127 -1.2019,-0.49128 z m -13.21576,-4.84013 c -0.92399,-0.24709 -1.18348,-0.63111 -1.1887,-1.75911 -0.006,-1.22605 0.86152,-2.99018 1.8879,-3.84048 1.20362,-0.99713 2.62706,-1.3232 4.86201,-1.11379 1.63641,0.15336 1.9291,0.26274 2.28862,0.85524 0.37685,0.62109 0.37033,0.8178 -0.0759,2.29167 -0.51065,1.68653 -0.9296,2.15148 -2.74896,3.05069 -1.14404,0.56545 -3.81439,0.83955 -5.02495,0.51578 z m 2.776,-1.90378 c 1.17586,-0.59976 2.38125,-1.99639 2.38125,-2.75905 0,-0.61201 -1.96294,-0.23839 -3.03218,0.57716 -0.80475,0.61381 -1.73032,1.99398 -1.73032,2.58017 0,0.41225 1.17877,0.21508 2.38125,-0.39828 z m 18.95907,0.58716 c -1.0441,-0.60692 -3.61324,-3.24352 -3.61324,-3.70811 0,-0.71638 0.58987,-0.59962 1.43679,0.28435 1.47126,1.53567 3.3902,1.79875 3.54141,0.48549 0.0967,-0.83966 -0.44427,-1.72331 -1.32175,-2.15908 -0.33756,-0.16764 -0.65382,-0.58521 -0.7028,-0.92792 -0.0805,-0.56337 -0.0171,-0.60518 0.66145,-0.43599 2.01683,0.50286 3.24079,1.49011 3.75658,3.03007 0.45436,1.35654 0.37663,1.77448 -0.51992,2.79559 -0.66252,0.75456 -1.00755,0.93368 -1.78594,0.9272 -0.53063,-0.005 -1.18429,-0.13565 -1.45258,-0.2916 z M 135.17921,255.714 c -1.24394,-1.09219 -1.98776,-2.59351 -2.1727,-4.38535 -0.1342,-1.30029 -0.10026,-1.43898 0.33164,-1.35531 0.327,0.0634 0.60629,0.54323 0.87182,1.49799 0.28816,1.03616 0.62919,1.5867 1.29961,2.09806 0.7517,0.57334 0.95035,0.62784 1.14832,0.31502 0.37432,-0.5915 0.27246,-2.70425 -0.15781,-3.27311 -0.56986,-0.75343 -0.475,-1.2062 0.2527,-1.2062 0.95936,0 2.21611,1.20126 2.54861,2.43609 0.32209,1.19615 0.21538,1.84257 -0.58544,3.54623 -0.50621,1.07692 -0.62015,1.16143 -1.56592,1.16143 -0.7672,0 -1.25565,-0.20691 -1.97083,-0.83485 z m 15.35221,-2.0648 c -1.74621,-0.2492 -2.77812,-0.6961 -2.77812,-1.20315 0,-0.58618 0.72351,-0.78671 1.4451,-0.40053 0.729,0.39015 2.52365,-0.0679 2.52365,-0.64417 0,-0.89964 -1.566,-1.2655 -2.99877,-0.7006 -0.80704,0.3182 -1.23456,0.199 -1.23456,-0.34422 0,-0.53326 0.82318,-1.1334 2.05391,-1.4974 1.36235,-0.40293 2.00774,-0.15056 3.70077,1.44709 1.27696,1.20503 1.37568,1.69866 0.52917,2.64604 -0.70639,0.79056 -1.45584,0.95171 -3.24115,0.69694 z m -33.46979,-2.36767 c -1.95459,-0.74606 -3.96875,-2.25236 -3.96875,-2.96807 0,-0.14884 0.56555,-0.86289 1.25677,-1.58678 1.14043,-1.19432 1.39185,-1.33005 2.71592,-1.46613 1.17457,-0.12073 1.70616,-0.0339 2.72564,0.44534 1.16795,0.54901 2.56209,1.93851 2.56209,2.55358 0,0.1428 0.29832,0.5399 0.66294,0.88244 l 0.66294,0.6228 -0.59679,0.63908 c -0.32824,0.3515 -0.91831,0.80637 -1.31126,1.01082 -0.95016,0.49436 -3.23478,0.4298 -4.7095,-0.13308 z m 2.34818,-1.77721 c 0.45475,-0.0909 0.82682,-0.31472 0.82682,-0.49727 0,-0.54653 -2.07448,-2.51237 -2.65121,-2.51237 -0.75896,0 -2.67803,1.33218 -2.58551,1.7948 0.0844,0.42203 2.1191,1.34171 3.02084,1.36542 0.30923,0.008 0.93431,-0.0596 1.38906,-0.15058 z m 23.51484,1.43465 c -0.5457,-0.14494 -0.99218,-0.37076 -0.99218,-0.50182 0,-0.13107 -0.17556,-0.2383 -0.39014,-0.2383 -0.21457,0 -1.09015,-0.68497 -1.94572,-1.52214 -1.44057,-1.4096 -1.56961,-1.63438 -1.74523,-3.03998 -0.23988,-1.91993 -0.0322,-2.63955 0.73037,-2.53091 0.44462,0.0633 0.60822,0.3181 0.73202,1.1399 0.21211,1.40799 0.58475,2.21258 1.48601,3.20859 0.96942,1.07132 2.66169,2.21537 3.27696,2.21537 0.53103,0 1.14911,0.91731 0.89506,1.32839 -0.19148,0.30981 -0.71506,0.29469 -2.04715,-0.0591 z m -16.6026,-1.49626 c 0,-0.31435 0.56014,-0.8373 1.55374,-1.45059 4.46762,-2.75757 6.70888,-6.43006 7.43912,-12.18962 0.14221,-1.12162 0.2558,-10.66974 0.2576,-21.65241 0.002,-10.80532 0.0674,-29.87458 0.14578,-42.37614 0.0784,-12.50156 0.15326,-29.58703 0.16634,-37.96771 0.0136,-8.70158 0.12811,-15.43621 0.267,-15.70062 0.34646,-0.6596 1.46199,-0.58803 1.83987,0.11804 0.23618,0.44131 0.26801,8.28484 0.13236,32.6099 -0.0982,17.61586 -0.18366,41.55383 -0.18985,53.1955 -0.0119,22.29263 -0.22455,30.25707 -0.89443,33.49034 -0.49581,2.39312 -1.65784,5.68249 -2.15245,6.09298 -0.19965,0.16569 -0.363,0.46269 -0.363,0.65999 0,0.1973 -0.6448,1.00353 -1.4329,1.79163 -2.93027,2.93027 -6.76918,4.84639 -6.76918,3.37871 z m -1.85208,-5.84705 c -0.21829,-0.12214 -0.89636,-0.42793 -1.50684,-0.67954 -1.36948,-0.56442 -2.03247,-1.26997 -2.4672,-2.6256 -0.32873,-1.02507 -0.31852,-1.05859 0.54135,-1.77644 1.40346,-1.17166 3.65638,-1.30972 5.17159,-0.31692 0.74386,0.4874 2.23081,2.65663 2.22755,3.24965 -0.001,0.22972 -0.42548,0.86415 -0.9427,1.40985 -0.95706,1.00975 -2.05871,1.27899 -3.02375,0.739 z m 1.85208,-2.89829 c 0,-0.57821 -1.41803,-1.87561 -2.04999,-1.87561 -0.52368,0 -1.38959,0.75814 -1.38959,1.21663 0,0.59233 1.13406,1.16462 2.30783,1.16462 0.93781,0 1.13175,-0.0866 1.13175,-0.50564 z m 9.04882,-128.54488 c -0.43187,-0.5457 -0.97766,-1.45321 -1.21286,-2.01669 -1.02306,-2.45102 0.0713,-7.48469 1.44299,-6.63696 0.12945,0.08 0.16282,0.83953 0.0742,1.68784 -0.16608,1.58895 0.2671,4.11792 0.75723,4.42084 0.76971,0.4757 1.01809,-2.60604 0.34071,-4.22724 -0.50486,-1.2083 -0.49946,-1.49602 0.0281,-1.49602 0.99486,0 2.21147,2.544 2.21429,4.63021 0.002,1.78026 -1.64463,4.63021 -2.67587,4.63021 -0.10092,0 -0.53683,-0.44649 -0.96871,-0.99219 z m 3.65118,-8.44508 c -0.59749,-0.25153 -0.78523,-0.65275 -0.7897,-1.68768 -0.003,-0.74835 0.20938,-1.1469 1.04938,-1.96714 0.94039,-0.918263 1.22437,-1.041013 2.64645,-1.143873 1.91414,-0.13846 3.07005,0.27097 3.29496,1.167083 0.25612,1.02045 -0.67328,2.4776 -2.02664,3.17745 -0.80192,0.41469 -3.55635,0.71435 -4.17445,0.45416 z m 3.14754,-2.23447 c 1.12245,-0.39129 0.89349,-0.91232 -0.36639,-0.83376 -1.18271,0.0737 -1.94203,0.56166 -1.40461,0.90257 0.46008,0.29185 0.77107,0.27976 1.771,-0.0688 z m -6.69111,0.14072 c -0.29787,-0.77624 -0.16135,-1.821983 0.46348,-3.550233 0.9462,-2.617131 1.11782,-3.008656 3.18932,-7.276044 1.0596,-2.182813 2.07582,-4.385469 2.25827,-4.894792 0.18246,-0.509323 0.43317,-1.164167 0.55714,-1.455208 0.58167,-1.36552 0.82568,-2.916045 0.96603,-6.138374 0.26043,-5.979393 -0.71058,-9.202843 -4.56688,-15.160585 -5.24949,-8.110152 -7.04976,-11.83784 -7.56462,-15.663501 -0.62652,-4.655436 0.72424,-8.901943 3.74021,-11.758417 0.773,-0.732118 2.23936,-0.85318 2.48794,-0.205401 0.38869,1.012907 0.13164,1.69612 -1.0565,2.808063 -1.63513,1.530278 -2.42526,2.955015 -2.8991,5.227563 -0.46342,2.222598 -0.313,3.930711 0.54864,6.230234 0.83494,2.228228 2.47637,5.617403 3.35478,6.92684 0.40807,0.608301 0.74194,1.179224 0.74194,1.268719 0,0.08949 0.57564,1.02054 1.27919,2.068994 3.09702,4.615257 5.19329,9.752391 5.87137,14.388434 0.40283,2.754156 -0.0182,7.732908 -0.83506,9.875139 -0.9699,2.5435 -1.07929,2.777143 -4.53801,9.692264 -1.1014,2.202052 -2.32453,4.910722 -2.71807,6.019275 -0.72171,2.03295 -0.98618,2.3629 -1.28007,1.59703 z m 1.58422,-14.332006 c -0.0786,-0.254662 -0.17475,-5.20082 -0.21367,-10.991462 -0.0611,-9.092578 -0.017,-10.562439 0.32353,-10.77772 0.52157,-0.329758 0.60183,-0.321874 1.20361,0.118216 0.49232,0.360039 0.51496,0.806614 0.54668,10.781771 0.0286,8.994799 -0.0218,10.468973 -0.37174,10.869195 -0.22265,0.254661 -0.61647,0.46302 -0.87515,0.46302 -0.25869,0 -0.53465,-0.208359 -0.61326,-0.46302 z m -1.53213,-37.17396 c -0.2297,-0.181901 -0.62354,-0.968835 -0.87521,-1.748745 -0.65095,-2.017281 -0.43571,-3.657605 0.70758,-5.392576 0.50433,-0.76532 0.99763,-1.608201 1.09623,-1.87307 0.11583,-0.311166 0.38806,-0.451604 0.76931,-0.396875 0.7887,0.11322 1.49561,1.977583 1.5146,3.994486 0.0119,1.264317 -0.15642,1.858865 -0.97375,3.439583 -1.23523,2.388947 -1.46386,2.590864 -2.23876,1.977197 z m 1.6394,-5.672965 c 0,-0.627031 -0.1168,-1.140056 -0.25955,-1.140056 -0.23779,0 -0.32223,0.252005 -0.69119,2.062689 -0.0681,0.334114 -0.0424,0.739103 0.057,0.899978 0.32652,0.528333 0.89375,-0.628396 0.89375,-1.822611 z m 0.13359,-15.455279 c -3.43628,-1.194906 -5.80422,-3.949443 -6.84956,-7.967853 -0.64068,-2.462829 0.33319,-6.424216 1.57933,-6.424216 0.56368,0 0.59729,0.557785 0.23375,3.879461 -0.1845,1.685785 -0.14949,1.850721 0.80155,3.775459 0.88681,1.79478 2.36843,3.558887 2.70572,3.221598 0.069,-0.06899 -0.0353,-0.5799 -0.23166,-1.135353 -0.23199,-0.656098 -0.35383,-2.214946 -0.34776,-4.449498 0.008,-2.964282 0.0942,-3.653238 0.62359,-4.985722 1.20886,-3.042785 4.31063,-6.0119679 6.82591,-6.5341389 2.34854,-0.487555 3.41777,0.598534 1.21664,1.235821 -0.59064,0.171006 -1.3555,0.4598249 -1.69968,0.6418209 -1.00751,0.532739 -2.95899,2.690604 -3.58916,3.96873 -0.72438,1.469229 -1.40353,4.026809 -1.39835,5.266057 0.005,1.196536 0.67388,4.045934 1.17912,5.022961 0.42906,0.82971 2.46621,2.925096 2.84379,2.925096 0.13115,0 0.2015,0.446484 0.15634,0.992188 -0.0808,0.976436 -0.10102,0.993195 -1.27275,1.055674 -0.68222,0.03638 -1.86793,-0.172038 -2.77682,-0.488085 z M 125.13142,12.714766 c -2.00521,-1.069188 -2.24895,-1.360366 -2.24895,-2.686662 0,-0.9327329 0.15247,-1.3224419 0.75194,-1.9219109 1.49665,-1.496655 4.91376,-1.723294 6.78733,-0.450169 1.5705,1.067179 2.61653,2.7065949 2.63304,4.1266689 l 0.0142,1.217188 -2.11667,0.01658 c -1.16417,0.0091 -2.65245,0.103682 -3.30729,0.210134 -1.00773,0.163818 -1.39385,0.08519 -2.51355,-0.511833 z m 4.66221,-2.592694 c -1.93182,-1.9683839 -3.58089,-2.1338429 -4.76022,-0.4776169 -0.43098,0.6052449 -0.48294,0.8409549 -0.22954,1.0411799 0.59497,0.470116 1.09664,0.546899 3.60523,0.551796 l 2.48393,0.0048 -1.0994,-1.120207 z m 15.31384,-4.6388856 c -0.65485,-0.093472 -1.33946,-0.2631845 -1.52136,-0.3771381 -0.3981,-0.249396 -0.4377,-1.136948 -0.0611,-1.3696935 0.14828,-0.091647 0.55288,-0.7237518 0.8991,-1.4046774 1.09614,-2.15584202 3.14371,-3.16536982 5.4175,-2.67102892 1.37032,0.2979195 3.73253,1.88454192 3.73253,2.50702562 0,0.737748 -0.79832,1.9686651 -1.27679,1.9686651 -0.2582,0 -0.58257,0.1043588 -0.72081,0.2319086 -0.13825,0.1275499 -0.94043,0.4847374 -1.78263,0.7937501 -1.54405,0.566524 -2.50586,0.6324428 -4.68643,0.3211885 z m 4.13304,-2.4071149 c 0.59968,-0.2569983 1.18342,-0.617886 1.29719,-0.8019727 0.29032,-0.4697532 -0.58918,-1.0481763 -1.59378,-1.0481763 -0.86854,0 -1.18567,0.1982171 -2.24471,1.4029981 -0.54645,0.6216502 -0.58914,0.7802838 -0.26409,0.9811785 0.45051,0.2784311 1.27646,0.1212054 2.80539,-0.5340276 z m -12.37042,1.0643436 c -0.52873,-0.2828226 -1.45146,-1.0710466 -2.05052,-1.7516086 -1.02999,-1.1701315 -1.08919,-1.3281025 -1.08919,-2.90646152 0,-1.59291868 0.0418,-1.70093668 0.91548,-2.36734268 0.74483,-0.5681118 1.07772,-0.6633171 1.78594,-0.5107658 2.24104,0.4827289 4.11966,2.39728228 4.82743,4.9197727 0.44291,1.578505 0.44117,1.6488956 -0.0573,2.3185666 -0.42968,0.5773227 -0.74836,0.7005997 -1.94229,0.7513505 -1.0009,0.042546 -1.71591,-0.093152 -2.3896,-0.4535112 z m 1.64823,-2.9339133 c -0.41544,-1.38662622 -1.75876,-2.890996 -2.58149,-2.890996 -0.54278,0 -0.61895,0.1266351 -0.61895,1.02902168 0,1.2097901 0.51557,1.93169262 1.98438,2.77854632 1.31998,0.761048 1.64524,0.5158946 1.21606,-0.916572 z"
       id="path254" />
  </g>
</svg>
