<?xml version="1.0" encoding="UTF-8" standalone="no"?>
<!-- Created with Inkscape (http://www.inkscape.org/) -->

<svg
   width="500pt"
   height="287pt"
   viewBox="0 0 500 287"
   version="1.1"
   id="svg1"
   inkscape:version="1.4.3 (0d15f75, 2025-12-25)"
   sodipodi:docname="vam_logo.svg"
   xmlns:inkscape="http://www.inkscape.org/namespaces/inkscape"
   xmlns:sodipodi="http://sodipodi.sourceforge.net/DTD/sodipodi-0.dtd"
   xmlns="http://www.w3.org/2000/svg"
   xmlns:svg="http://www.w3.org/2000/svg">
  <sodipodi:namedview
     id="namedview1"
     pagecolor="#ffffff"
     bordercolor="#000000"
     borderopacity="0.25"
     inkscape:showpageshadow="2"
     inkscape:pageopacity="0.0"
     inkscape:pagecheckerboard="0"
     inkscape:deskcolor="#d1d1d1"
     inkscape:document-units="mm"
     inkscape:zoom="1.0494603"
     inkscape:cx="309.68299"
     inkscape:cy="145.31279"
     inkscape:window-width="1920"
     inkscape:window-height="1051"
     inkscape:window-x="-9"
     inkscape:window-y="-9"
     inkscape:window-maximized="1"
     inkscape:current-layer="layer1" />
  <defs
     id="defs1" />
  <g
     inkscape:label="Layer 1"
     inkscape:groupmode="layer"
     id="layer1">
    <path
       id="path1"
       fill-rule="nonzero"
       d="m 496.859,279.87 c -0.457,-0.073 -1.968,-0.238 -4.335,-0.43 -11.586,-0.931 -24.247,-3.292 -31.776,-22.793 C 458.332,250.398 363.194,3.993 362.571,2.35 c -0.716,-1.881 -2.501,-1.831 -3.127,0.062 -0.535,1.62 -25.75,76.311 -25.75,76.311 l 65.626,180.443 c 1.151,3.351 2.273,6.668 2.273,9.216 0,3.225 -2.178,6.922 -5.851,8.656 -2.899,1.366 -8.416,2.093 -12.663,2.448 -1.337,0.11 -2.48,0.226 -3.687,0.402 -1.33,0.193 -1.864,1.333 -1.864,2.338 0,1.23 0.923,2.117 2.273,2.117 h 117.207 c 0.983,0 2.026,-0.912 2.026,-1.975 0,-1.81 -1.093,-2.319 -2.174,-2.498 z M 232.455,13.183 c 3.447,-2.027 7.965,-2.996 17.101,-3.489 1.293,-0.07 2.3,-0.783 2.3,-2.085 0,-1.375 -1.062,-2.133 -2.058,-2.133 l -55.42,-0.02 c -1.297,0 -2.796,0.391 -2.796,2.127 0,0.88 0.368,1.87 2.07,2.097 1.286,0.169 4.233,0.351 7.52,0.581 7.926,0.554 10.972,1.38 13.249,4.653 2.137,3.076 0.988,8.54 -1.42,15.04 -2.4,6.474 -66.192,169.885 -66.192,169.885 h -0.258 C 145.783,197.45 95.249,38.695 93.056,31.841 c -2.19,-6.857 -3.07,-11.683 -1.94,-14.333 2.064,-4.836 6.174,-6.534 16.426,-7.24 1.408,-0.096 2.06,-0.149 3.344,-0.259 C 112.234,9.893 113,8.71 112.71,7.265 112.408,5.757 111.53,5.446 109.878,5.446 L 3.14,5.453 c -0.981,0 -2.06,0.654 -2.164,2.01 -0.084,1.073 0.419,1.676 1.064,1.97 0.628,0.284 2.503,0.528 6.019,0.777 7.811,0.551 10.336,1.215 13.223,2.595 5.86,2.798 9.87,10.3 11.87,16.287 2.003,5.986 84.912,255.053 85.175,255.813 0.401,1.165 2.087,1.208 2.592,0.025 0.51,-1.203 103.281,-258.943 104.756,-262.535 1.267,-3.083 3.305,-7.168 6.78,-9.21 z m 126.324,249.03 c -2.263,-0.706 -3.673,0.702 -5.333,4.626 -1.927,4.55 -6.08,5.783 -10.075,5.783 -7.47,0 -14.99,-8.55 -20.575,-17.249 -0.306,-0.478 -3.477,-5.447 -8.24,-12.918 12.125,-16.838 19.038,-36.55 22.208,-49.563 1.093,-4.488 2.708,-11.27 5.122,-14.085 3.346,-3.9 7.005,-5.025 12.289,-5.554 2.292,-0.229 3.31,-0.34 4.17,-0.592 1.193,-0.352 1.538,-1.481 1.43,-2.307 -0.165,-1.241 -1.045,-1.787 -1.983,-1.787 l -46.184,-0.008 c -1.537,0 -2.234,0.988 -2.234,2.174 0,1.113 0.73,1.74 1.784,1.993 0.73,0.176 2.034,0.306 2.92,0.352 5.788,0.3 10.016,0.954 12.655,2.709 4.255,2.828 3.842,7.245 3.037,13.263 -1.806,13.442 -8.637,33.256 -18.57,48.146 -18.073,-28.34 -50.87,-79.774 -50.87,-79.774 0,0 13.58,-7.047 22.796,-12.342 8.994,-5.167 22.756,-15.555 22.756,-32.541 0,-10.072 -5.77,-17.897 -13.67,-23.115 -8.12,-5.363 -20.282,-9.653 -34.088,-9.653 -17.211,0 -35.611,6.313 -45.58,22.116 -9.63,15.26 -7.144,37.545 4.185,56.182 a 371.05,371.05 0 0 0 6.42,10.123 c -4.026,1.44 -9.023,3.606 -13.238,5.52 -22.9,10.626 -42.333,30.463 -42.333,57.686 0,30.283 22.54,54.637 64.087,54.637 22.655,0 41.325,-7.183 56.206,-17.806 6.86,9.296 19.555,16.273 37.801,16.273 17.312,0 31.02,-10.07 34.568,-18.316 0.604,-1.408 0.238,-3.444 -1.46,-3.971 v -0.002 z M 238.733,92.236 c 3.578,-5.14 8.931,-7.264 16.105,-7.264 9.746,0 21.665,9.092 21.665,32.038 0,14.423 -7.296,28.283 -19.027,35.996 0,0 -10.116,-15.616 -15.916,-26.516 -5.077,-9.55 -9.746,-24.315 -2.827,-34.254 z m -35.438,122.937 c 0,-13.68 4.8,-31.505 22.316,-42.735 l 0.021,0.033 -0.02,-0.033 0.052,0.083 c 0.03,0.043 0.068,0.106 0.12,0.183 38.2,58.879 40.327,62.265 58.898,90.743 -8.163,5.418 -17.215,8.672 -26.265,8.672 -30.941,0 -55.123,-28.685 -55.123,-56.945 z"
       fill="currentColor" />
  </g>
</svg>
