<svg xmlns="http://www.w3.org/2000/svg" width="800" height="800">
<g transform="translate(-1600,-800)">
<path fill="#c481ff" d="M2013,1153.43c31.93-43.51,207-17.43,261,30.57,60.4,53.69,88.69,161,64.22,205.47C2317,1428,2208,1412,2145,1376c-42.44-24.25-103.36-87.32-121-131C2009,1207.76,2002.48,1167.72,2013,1153.43Z"/>
<path fill="#c481ff" d="M1989.87,1153.43c-31.93-43.51-207-17.43-261,30.57-60.4,53.69-88.7,161-64.22,205.47,21.22,38.53,130.22,22.53,193.22-13.47,42.44-24.25,103.36-87.32,121-131C1993.87,1207.76,2000.35,1167.72,1989.87,1153.43Z"/>
<path fill="#a561ff" d="M2001,1192c-68,0-176.13,105-176,191,.14,94.86,130.13,179.44,176,180,42.19.51,176-85.07,176-179.93C2177,1288,2059,1192,2001,1192Z"/>
<path fill="#dfa0ff" d="M2091.87,1128H1915c-8.59,2.86-41.5,51.35-24,76,21.87,30.81,85.14,25.58,112.5,21.08,27.36,4.5,90.5,9.73,112.37-21.08C2133.36,1179.35,2100.46,1130.86,2091.87,1128Z"/>
<path fill="#dfa0ff" d="M2002,1191c-41.88,0-80.12,32.68-80.28,33.85-.67,5.06-1.91,19.23,3.92,26.48C1931,1258,1942,1261,1954,1268c15.21,8.87,28,20,48,20,17,0,28.89-10,46-20,12-7,23.18-10,28.54-16.67,5.73-7.13,4.51-20.31,3.79-25.32C2080.15,1224.74,2036.12,1191,2002,1191Z"/>
<path fill="#a561ff" d="M1967,1174c-36,19-175-27-224.48-83.63-62-70.95-22.38-233.06,15.48-250.37,35-16,165,16,209,70C2043.43,1003.81,2026.33,1142.69,1967,1174Z"/>
<path fill="#a561ff" d="M2035.3,1174c36,19,175-27,224.48-83.63,62-70.95,22.38-233.06-15.48-250.37-35-16-165,16-209,70C1958.86,1003.81,1976,1142.69,2035.3,1174Z"/>
</g>
</svg>